<svg id="圖層_1" data-name="圖層 1" xmlns="http://www.w3.org/2000/svg" viewBox="0 0 20 20"><defs><style>.cls-1{fill:#27616b;fill-rule:evenodd;}</style></defs><path class="cls-1" d="M1.2861,1.29A.9807.9807,0,0,0,1,1.9836V5.9181a.9839.9839,0,0,0,1.9677,0v-1.56l3.24,3.2389A.9838.9838,0,1,0,7.5988,6.2061l-3.24-3.2389h1.56A.9836.9836,0,1,0,5.9192,1H1.9838a.98.98,0,0,0-.6935.286Zm17.137,0a.9807.9807,0,0,1,.2861.6934V5.9181a.9839.9839,0,0,1-1.9677,0v-1.56l-3.24,3.2389a.9837.9837,0,1,1-1.3913-1.3911l3.24-3.2389H13.79A.9836.9836,0,1,1,13.79,1h3.9354a.9808.9808,0,0,1,.6936.286Zm.2114,16.8077a.9787.9787,0,0,1-.2114.3169l-.0041.0042a.9813.9813,0,0,1-.6936.286H13.79a.9836.9836,0,1,1,0-1.9672h1.56l-3.24-3.239a.9837.9837,0,0,1,1.3913-1.391l3.24,3.239v-1.56a.9839.9839,0,0,1,1.9677,0v3.9345A.98.98,0,0,1,18.6345,18.0979Zm-17.3484.3169A.9807.9807,0,0,1,1,17.7214V13.7869a.9839.9839,0,0,1,1.9677,0v1.56l3.24-3.239a.9837.9837,0,0,1,1.3914,1.391l-3.24,3.239h1.56a.9836.9836,0,1,1,0,1.9672H1.9838a.9808.9808,0,0,1-.6935-.286Z"/></svg>