<svg id="圖層_1" data-name="圖層 1" xmlns="http://www.w3.org/2000/svg" viewBox="0 0 20 20"><defs><style>.cls-1{fill:#addbd7;fill-rule:evenodd;}</style></defs><path class="cls-1" d="M18,10A8.0012,8.0012,0,0,1,2.2743,12.0846a2.3739,2.3739,0,0,0,.3012.02,1.7457,1.7457,0,0,0,1.3621-.5871,2.0231,2.0231,0,0,0,.3636-1.6677c-.0017-.0711-.0054-.1515-.0089-.2254h0v0l-.0045-.0992c-.0056-.1349-.0084-.2693-.0022-.4a.9961.9961,0,0,1,.1165-.5075.7264.7264,0,0,0,.0431-.0642c.1212-.2019.2052-.2341.24-.2444a.9034.9034,0,0,1,.5043.07.7676.7676,0,0,0,.0745.0206c.168.0373.3113.1689.3373.4725a1.2038,1.2038,0,0,1-.4185.9809,3.2284,3.2284,0,0,0-.9269,3.7749c.0086.0171.0178.034.0277.05a6.0933,6.0933,0,0,0,2.1942,1.938,7.1956,7.1956,0,0,0,2.4911.9216.763.763,0,0,0,.0828.0046,2.7413,2.7413,0,0,0,2.2562-.9563,1.695,1.695,0,0,0-.055-2.1489,4.5336,4.5336,0,0,0-1.5158-1.07c-.1342-.0649-.2931-.1374-.4251-.1977h0l0,0c-.0784-.0358-.1474-.0673-.196-.09-.0819-.0386-.1382-.0671-.1759-.0886L8.9246,11.98a.7515.7515,0,0,0-.0815-.0628.8941.8941,0,0,1-.31-.2956c-.0193-.0374-.0162-.0514-.0142-.0607l0-.0009a.3458.3458,0,0,1,.0905-.1457.9743.9743,0,0,1,.2776-.2022.3949.3949,0,0,1,.2026-.02c.07.0041.1455.0133.2483.0267l.0231.0031h0c.0911.0119.2049.0268.3205.0357a1.9059,1.9059,0,0,0,1.869-.9255.7443.7443,0,0,0,.0468-.0806,1.9355,1.9355,0,0,0,.0029-1.584,1.8323,1.8323,0,0,0-1.4426-1.1189l-.0315-.0038A.5448.5448,0,0,1,9.824,7.446a.15.15,0,0,1-.0533-.0885.224.224,0,0,1,.0115-.1246.1119.1119,0,0,1,.0308-.0481v0l.0116-.0072c.1969-.1231.4342-.1061,1.0846.0345l.0565.0123a3.02,3.02,0,0,0,2.2006-.1522A1.824,1.824,0,0,0,14.0384,6.05a2.2284,2.2284,0,0,0,.0452-1.16,4.274,4.274,0,0,0-.7952-1.66.7048.7048,0,0,1-.0587-.552A8.0018,8.0018,0,0,1,18,10ZM11.8062,2.2047A8.0072,8.0072,0,0,0,2,10q0,.2141.0111.4253c.0164.0118.0365.0251.0612.04a1.0558,1.0558,0,0,0,.5032.1394c.1673,0,.2121-.05.2151-.0536a.216.216,0,0,0,.0373-.1,1.1521,1.1521,0,0,0-.0144-.4034.7486.7486,0,0,1-.0114-.13c0-.0473-.0025-.1005-.0062-.1776-.002-.0426-.0044-.0926-.0068-.153-.0062-.15-.0112-.3362-.0018-.5332a2.4383,2.4383,0,0,1,.39-1.3028A1.9106,1.9106,0,0,1,4.2623,6.869,2.3046,2.3046,0,0,1,5.63,6.9438,1.9519,1.9519,0,0,1,7.0962,8.7432a2.7024,2.7024,0,0,1-.9252,2.2379,1.7564,1.7564,0,0,0-.5847,1.9509,4.7586,4.7586,0,0,0,1.6334,1.38,5.9634,5.9634,0,0,0,1.8755.73,1.2666,1.2666,0,0,0,1.0131-.3559.2015.2015,0,0,0-.0074-.2886,3.1415,3.1415,0,0,0-1.0155-.68c-.1366-.0659-.245-.1152-.3534-.1645-.0814-.0369-.1627-.0739-.2559-.1178s-.1889-.0911-.2767-.1409a1.5658,1.5658,0,0,1-.2344-.16,1.825,1.825,0,0,1-.9114-1.8927A2.1156,2.1156,0,0,1,8.2167,9.8708a1.86,1.86,0,0,1,.9615-.1755c.13.0076.2548.0238.3542.0367l.0139.0019c.1006.0131.1767.023.2508.0287a.5683.5683,0,0,0,.2624-.02.5051.5051,0,0,0,.2028-.1841.3754.3754,0,0,0,.0066-.08.5871.5871,0,0,0-.0468-.2192.3351.3351,0,0,0-.2655-.2232A1.7759,1.7759,0,0,1,8.3022,7.6634a1.6716,1.6716,0,0,1,.7329-1.7612,2.7321,2.7321,0,0,1,2.1088-.1741l.0823.018c.6228.1347.9324.17,1.2117.015a.3319.3319,0,0,0,.1787-.1888.7525.7525,0,0,0-.0022-.3794,2.7977,2.7977,0,0,0-.523-1.0577q-.02-.0255-.0383-.0525A2.1992,2.1992,0,0,1,11.8062,2.2047ZM.2735,7.6676a10.0057,10.0057,0,1,1-.1539.781L.0935,8.29A.7488.7488,0,0,1,.2735,7.6676Zm15.03,3.7665a4.4528,4.4528,0,0,0-1.1066.8964c-.0412.0424-.0793.0816-.1142.1165a.7547.7547,0,0,1-.0618.0553.4452.4452,0,0,0-.1724.349.1472.1472,0,0,0,.0195.0767l0,0c.0018.0026.01.0146.0464.0268a1.3283,1.3283,0,0,0,.8407-.1737c.3823-.1973.5345-.4355.5529-.5828l.0044-.03A2.5643,2.5643,0,0,0,15.3032,11.4341Zm1.4911.9664a4.13,4.13,0,0,0-.0771-1.5408,1.9325,1.9325,0,0,0-.3232-.7211.9879.9879,0,0,0-.5082-.3473.8919.8919,0,0,0-.6037.0462,5.1311,5.1311,0,0,0-2.189,1.4742l-.049.0517A1.9416,1.9416,0,0,0,12.35,12.92a1.579,1.579,0,0,0,1.09,1.4587,2.73,2.73,0,0,0,2.003-.2638A2.379,2.379,0,0,0,16.7943,12.4005Z"/></svg>