<svg id="圖層_1" data-name="圖層 1" xmlns="http://www.w3.org/2000/svg" viewBox="0 0 20 16.8117"><defs><style>.cls-1{fill:#4a4a4a;fill-rule:evenodd;}</style></defs><path class="cls-1" d="M2.5,3.8478a1,1,0,0,1,1-1H5.882L6.6056,4.295A1,1,0,0,0,7.5,4.8478h3a1,1,0,1,0,0-2H8.118L7.3944,1.4006A1,1,0,0,0,6.5.8478h-3a3,3,0,0,0-3,3v9a3,3,0,0,0,3,3h12a3,3,0,0,0,3-3v-2a1,1,0,0,0-2,0v2a1,1,0,0,1-1,1H3.5a1,1,0,0,1-1-1ZM19.2071,2.1407a.9971.9971,0,0,1,.2929.6979V6.8478a1,1,0,0,1-2,0V5.262L14.2071,8.5549a1,1,0,0,1-1.4142-1.4142l3.2929-3.2929H14.5a1,1,0,0,1,0-2h4l.048.0011A.9965.9965,0,0,1,19.2071,2.1407Z"/></svg>